<svg width="24" height="24" viewBox="0 0 18 18" fill="none" xmlns="http://www.w3.org/2000/svg">
<path d="M13.2385 13.1904V12.1486C13.2385 11.5959 13.019 11.066 12.6282 10.6752C12.2375 10.2845 11.7075 10.0649 11.1549 10.0649H6.98766C6.43505 10.0649 5.90508 10.2845 5.51433 10.6752C5.12358 11.066 4.90405 11.5959 4.90405 12.1486V13.1904" stroke="white" stroke-linecap="round" stroke-linejoin="round"/>
<path d="M9.06994 7.98118C10.2207 7.98118 11.1535 7.04832 11.1535 5.89757C11.1535 4.74683 10.2207 3.81396 9.06994 3.81396C7.91919 3.81396 6.98633 4.74683 6.98633 5.89757C6.98633 7.04832 7.91919 7.98118 9.06994 7.98118Z" stroke="white" stroke-linecap="round" stroke-linejoin="round"/>
<path d="M8.99996 17.0546C13.4483 17.0546 17.0544 13.4485 17.0544 9.0002C17.0544 4.55188 13.4483 0.945801 8.99996 0.945801C4.55164 0.945801 0.945557 4.55188 0.945557 9.0002C0.945557 13.4485 4.55164 17.0546 8.99996 17.0546Z" stroke="white" stroke-linecap="round" stroke-linejoin="round"/>
</svg>
