<svg width="24" height="24" viewBox="0 0 18 18" fill="none" xmlns="http://www.w3.org/2000/svg">
<g clip-path="url(#clip0_497_4766)">
<path d="M9 1.2085V16.7918" stroke="white" stroke-linecap="round" stroke-linejoin="round"/>
<path d="M12.75 4.0415H7.125C6.42881 4.0415 5.76113 4.3027 5.26884 4.76764C4.77656 5.23257 4.5 5.86315 4.5 6.52067C4.5 7.17819 4.77656 7.80877 5.26884 8.27371C5.76113 8.73864 6.42881 8.99984 7.125 8.99984H10.875C11.5712 8.99984 12.2389 9.26103 12.7312 9.72597C13.2234 10.1909 13.5 10.8215 13.5 11.479C13.5 12.1365 13.2234 12.7671 12.7312 13.232C12.2389 13.697 11.5712 13.9582 10.875 13.9582H4.5" stroke="white" stroke-linecap="round" stroke-linejoin="round"/>
</g>
<defs>
<clipPath id="clip0_497_4766">
<rect width="18" height="17" fill="white" transform="translate(0 0.5)"/>
</clipPath>
</defs>
</svg>
