<svg width="20" height="18" viewBox="0 0 20 18" fill="none" xmlns="http://www.w3.org/2000/svg">
<path d="M13.2911 8.39258L16.04 11.1415L18.7889 8.39258" stroke="white" stroke-linecap="round" stroke-linejoin="round"/>
<path d="M9.99182 2.34766H13.8403C14.4235 2.34766 14.9829 2.57935 15.3953 2.99176C15.8077 3.40418 16.0394 3.96353 16.0394 4.54677V11.1441" stroke="white" stroke-linecap="round" stroke-linejoin="round"/>
<path d="M6.70923 9.55615L3.96033 6.80725L1.21143 9.55615" stroke="white" stroke-linecap="round" stroke-linejoin="round"/>
<path d="M10.0085 15.6011L6.16009 15.6011C5.57685 15.6011 5.01749 15.3694 4.60508 14.957C4.19266 14.5446 3.96097 13.9852 3.96097 13.402L3.96097 6.8046" stroke="white" stroke-linecap="round" stroke-linejoin="round"/>
<path d="M16.2394 13.9473H13.6738C13.4713 13.9473 13.3073 14.1114 13.3073 14.3138V16.8794C13.3073 17.0818 13.4713 17.2459 13.6738 17.2459H16.2394C16.4418 17.2459 16.6059 17.0818 16.6059 16.8794V14.3138C16.6059 14.1114 16.4418 13.9473 16.2394 13.9473Z" stroke="white" stroke-linecap="round" stroke-linejoin="round"/>
<path d="M6.34512 0.753906H3.77948C3.57706 0.753906 3.41296 0.918003 3.41296 1.12043V3.68606C3.41296 3.88849 3.57706 4.05258 3.77948 4.05258H6.34512C6.54755 4.05258 6.71164 3.88849 6.71164 3.68606V1.12043C6.71164 0.918003 6.54755 0.753906 6.34512 0.753906Z" stroke="white" stroke-linecap="round" stroke-linejoin="round"/>
</svg>
