<svg width="16" height="22" viewBox="0 0 16 22" fill="none" xmlns="http://www.w3.org/2000/svg">
<path d="M12.3934 5.17786C13.6068 5.17786 14.5905 4.19419 14.5905 2.98077C14.5905 1.76736 13.6068 0.783691 12.3934 0.783691C11.18 0.783691 10.1963 1.76736 10.1963 2.98077C10.1963 4.19419 11.18 5.17786 12.3934 5.17786Z" stroke="white" stroke-linecap="round" stroke-linejoin="round"/>
<path d="M3.60675 10.3053C4.82017 10.3053 5.80383 9.32163 5.80383 8.10822C5.80383 6.8948 4.82017 5.91113 3.60675 5.91113C2.39334 5.91113 1.40967 6.8948 1.40967 8.10822C1.40967 9.32163 2.39334 10.3053 3.60675 10.3053Z" stroke="white" stroke-linecap="round" stroke-linejoin="round"/>
<path d="M3.60675 21.2159C4.82017 21.2159 5.80383 20.2323 5.80383 19.0189C5.80383 17.8054 4.82017 16.8218 3.60675 16.8218C2.39334 16.8218 1.40967 17.8054 1.40967 19.0189C1.40967 20.2323 2.39334 21.2159 3.60675 21.2159Z" stroke="white" stroke-linecap="round" stroke-linejoin="round"/>
<path d="M12.3934 15.4288C13.6068 15.4288 14.5905 14.4452 14.5905 13.2318C14.5905 12.0183 13.6068 11.0347 12.3934 11.0347C11.18 11.0347 10.1963 12.0183 10.1963 13.2318C10.1963 14.4452 11.18 15.4288 12.3934 15.4288Z" stroke="white" stroke-linecap="round" stroke-linejoin="round"/>
<path d="M5.50549 9.21729L10.5075 12.1321" stroke="white" stroke-linecap="round" stroke-linejoin="round"/>
<path d="M10.5002 4.08936L5.50549 7.00415" stroke="white" stroke-linecap="round" stroke-linejoin="round"/>
<path d="M10.5002 14.9941L5.50549 17.9089" stroke="white" stroke-linecap="round" stroke-linejoin="round"/>
</svg>
